<svg width="27" height="20" viewBox="0 0 27 20" fill="none" xmlns="http://www.w3.org/2000/svg">
<path d="M5.96125 5.50717e-08C4.41537 -0.000210105 2.93133 0.601084 1.82913 1.67423C0.726929 2.74737 0.0948772 4.20638 0.0692596 5.73667C-0.0822487 7.17833 -0.0603657 9.305 0.92444 11.76C1.93113 14.27 3.894 17.0067 7.47634 19.6667C7.65319 19.798 7.85444 19.8935 8.0686 19.9479C8.28275 20.0022 8.50562 20.0142 8.72447 19.9832C9.16645 19.9207 9.56525 19.687 9.83314 19.3333C10.101 18.9797 10.216 18.5352 10.1529 18.0976C10.0898 17.66 9.85363 17.2652 9.49645 17C6.86357 15.045 5.35522 13.145 4.49162 11.4833C5.30129 11.6892 6.14593 11.7221 6.96943 11.5799C7.79294 11.4377 8.57646 11.1237 9.26794 10.6586C9.95942 10.1936 10.543 9.58821 10.98 8.88268C11.417 8.17715 11.6973 7.38763 11.8024 6.56658C11.9075 5.74554 11.8349 4.91175 11.5895 4.12061C11.344 3.32948 10.9314 2.5991 10.3789 1.97801C9.82641 1.35691 9.14676 0.859322 8.3851 0.518285C7.62343 0.177248 6.79719 0.000574361 5.96125 5.50717e-08ZM21.1121 5.50717e-08C19.5662 -0.000210105 18.0822 0.601084 16.98 1.67423C15.8778 2.74737 15.2457 4.20638 15.2201 5.73667C15.0686 7.17833 15.0905 9.305 16.0753 11.76C17.0803 14.27 19.0448 17.0067 22.6272 19.6667C22.804 19.798 23.0053 19.8935 23.2194 19.9479C23.4336 20.0022 23.6565 20.0142 23.8753 19.9832C24.3173 19.9207 24.7161 19.687 24.984 19.3333C25.2519 18.9797 25.3669 18.5352 25.3037 18.0976C25.2406 17.66 25.0045 17.2652 24.6473 17C22.0144 15.045 20.5061 13.145 19.6425 11.4833C20.4521 11.6892 21.2968 11.7221 22.1203 11.5799C22.9438 11.4377 23.7273 11.1237 24.4188 10.6586C25.1103 10.1936 25.6939 9.58821 26.1309 8.88268C26.5678 8.17715 26.8482 7.38763 26.9533 6.56658C27.0583 5.74554 26.9858 4.91175 26.7403 4.12061C26.4949 3.32948 26.0822 2.5991 25.5297 1.97801C24.9772 1.35691 24.2976 0.859322 23.5359 0.518285C22.7743 0.177248 21.948 0.000574361 21.1121 5.50717e-08Z" fill="#222222"/>
</svg>
