<svg width="28" height="28" viewBox="0 0 28 28" fill="none" xmlns="http://www.w3.org/2000/svg">
<path d="M13.84 9.18554C11.3095 9.18554 9.24442 11.2507 9.24442 13.7812C9.24442 16.3118 11.3095 18.377 13.84 18.377C16.3706 18.377 18.4357 16.3118 18.4357 13.7812C18.4357 11.2507 16.3706 9.18554 13.84 9.18554ZM27.6235 13.7812C27.6235 11.8782 27.6407 9.99229 27.5338 8.09264C27.427 5.88615 26.9236 3.92789 25.3101 2.31439C23.6932 0.697449 21.7384 0.197541 19.532 0.0906641C17.6289 -0.0162128 15.7431 0.00102548 13.8435 0.00102548C11.9404 0.00102548 10.0546 -0.0162128 8.15499 0.0906641C5.94854 0.197541 3.99032 0.700897 2.37685 2.31439C0.759936 3.93134 0.260037 5.88615 0.153162 8.09264C0.0462875 9.99574 0.0635255 11.8816 0.0635255 13.7812C0.0635255 15.6809 0.0462875 17.5702 0.153162 19.4699C0.260037 21.6763 0.763384 23.6346 2.37685 25.2481C3.99376 26.865 5.94854 27.365 8.15499 27.4718C10.0581 27.5787 11.9439 27.5615 13.8435 27.5615C15.7466 27.5615 17.6324 27.5787 19.532 27.4718C21.7384 27.365 23.6967 26.8616 25.3101 25.2481C26.9271 23.6312 27.427 21.6763 27.5338 19.4699C27.6441 17.5702 27.6235 15.6843 27.6235 13.7812ZM13.84 20.8524C9.92704 20.8524 6.76906 17.6943 6.76906 13.7812C6.76906 9.86818 9.92704 6.71014 13.84 6.71014C17.753 6.71014 20.911 9.86818 20.911 13.7812C20.911 17.6943 17.753 20.8524 13.84 20.8524ZM21.2006 8.07195C20.287 8.07195 19.5492 7.33416 19.5492 6.42053C19.5492 5.50691 20.287 4.76911 21.2006 4.76911C22.1142 4.76911 22.852 5.50691 22.852 6.42053C22.8523 6.63748 22.8098 6.85234 22.7269 7.05283C22.644 7.25331 22.5223 7.43547 22.3689 7.58887C22.2155 7.74227 22.0334 7.86391 21.8329 7.9468C21.6324 8.0297 21.4176 8.07223 21.2006 8.07195Z" fill="#EFEFEF"/>
</svg>
