<svg width="31" height="26" viewBox="0 0 31 26" fill="none" xmlns="http://www.w3.org/2000/svg">
<path d="M15.8111 0.532227C16.6288 0.53682 18.6746 0.556726 20.8489 0.644008L21.6207 0.677695C23.8088 0.780289 25.9955 0.957914 27.0811 1.25957C28.5282 1.66688 29.6643 2.85207 30.0487 4.35576C30.6612 6.74451 30.7377 11.4026 30.7469 12.5311L30.7485 12.7639V13.0303C30.7377 14.1588 30.6612 18.8184 30.0487 21.2056C29.6597 22.7139 28.522 23.9006 27.0811 24.3018C25.9955 24.6035 23.8088 24.7811 21.6207 24.8837L20.8489 24.9189C18.6746 25.0047 16.6288 25.0261 15.8111 25.0292L15.4513 25.0307H15.0608C13.3305 25.02 6.09381 24.9419 3.79081 24.3018C2.34531 23.8945 1.20759 22.7093 0.82325 21.2056C0.21075 18.8169 0.134187 14.1588 0.125 13.0303V12.5311C0.134187 11.4026 0.21075 6.74298 0.82325 4.35576C1.21219 2.84748 2.34991 1.66076 3.79234 1.2611C6.09381 0.619508 13.332 0.541414 15.0623 0.532227H15.8111ZM12.3735 7.42285V18.1416L21.561 12.7822L12.3735 7.42285Z" fill="#EFEFEF"/>
</svg>
